<svg xmlns="http://www.w3.org/2000/svg" viewBox="416 288.21454632695645 140 185.20520684218621" width="140" height="185.20520684218621">
  <path d="M444,336 L522,336 Q546,336 546,360 L546,438 Q546,462 522,462 L444,462 Q420,462 420,438 L420,360 Q420,336 444,336 Z" fill-rule="evenodd" fill="#ffffff" stroke="#0b7b6a" stroke-width="6" stroke-linejoin="round" />
  <path d="M439.3363931084899,336 L526.6636068915101,336 Q541.6636068915101,336 541.6636068915101,351 L541.6636068915101,360.2722103630381 Q541.6636068915101,375.2722103630381 526.6636068915101,375.2722103630381 L439.3363931084899,375.2722103630381 Q424.3363931084899,375.2722103630381 424.3363931084899,360.2722103630381 Q427.02888777507343,355.63610518151904 424.3363931084899,351 Q424.3363931084899,336 439.3363931084899,336 Z" fill-rule="evenodd" fill="#0B7B6A" stroke="#0b7b6a" stroke-width="6" stroke-linejoin="round" />
  <path d="M441.1292607056768,292.21454632695645 L448.7619329845949,292.21454632695645 L448.7619329845949,332.52647715112164 L441.1292607056768,332.52647715112164 Z" fill-rule="evenodd" fill="#0B7B6A" stroke="#0b7b6a" stroke-width="6" stroke-linejoin="round" />
  <path d="M520.7051609349314,292.21454632695645 L529.2948390650686,292.21454632695645 L529.2948390650686,333.3112593478794 L520.7051609349314,333.3112593478794 Z" fill-rule="evenodd" fill="#0B7B6A" stroke="#0b7b6a" stroke-width="6" stroke-linejoin="round" />
  <path d="M551.9562957295753,451.6973549799907 L551.956274326679,451.6978022467189 Q551.9125914591507,452.6106643620655 551.7818995438922,453.5151780755252 L551.7817738456087,453.5160480285059 Q551.6512076286338,454.41969178898495 551.4347867031288,455.3066988723115 L551.4344838653545,455.3079400612132 Q551.2183657776238,456.193705955638 550.9183000936928,457.05466404573156 L550.9177640829006,457.0562019850979 Q550.6182344097616,457.91562213582506 550.2374137639732,458.7422397356304 L550.236610862931,458.74398253014465 Q549.8565931181848,459.5688573354357 549.3986850215358,460.3531736655916 L549.3976076259363,460.355019055461 Q548.9407769248867,461.1374899957475 548.4101912826658,461.87195166124366 L548.4088596294044,461.8737949984814 Q547.8796056404449,462.60641332673976 547.2814522824344,463.28394706023977 L547.2799138781245,463.285689624754 Q546.6832989244239,463.9614807937398 546.0233383944451,464.57556157501256 L546.021665075441,464.577118566673 Q545.3633778644664,465.1896423562853 544.6479659431945,465.73435625171635 L544.6462486910254,465.73566376573814 Q543.9325540219226,466.27907014714737 543.1685805172431,466.7491712641529 L543.1669223639162,466.7501915871436 Q542.4046070125636,467.2192723811584 541.599429406957,467.61023338899815 L541.5979369731442,467.61095805325056 Q540.7942518013505,468.0011943968379 539.9556243953136,468.3092501272854 L539.9543987842859,468.30970033496726 Q539.1169969892769,468.6173058577329 538.2529962231704,468.8394895657035 L538.2521241146486,468.83971383437637 Q537.388995457064,469.06167327367416 536.5079421305763,469.1958452086021 L536.5074879541828,469.1959143732301 Q535.6268888040886,469.33001714353014 534.7372679423864,469.3748851563364 L534.7372679423864,469.3748851563364 Q533.8476470806843,469.41975316914267 532.9580262189821,469.3748851563364 L532.9580262189821,469.3748851563364 Q532.06840535728,469.33001714353014 531.1878062071858,469.1959143732301 L531.1873520307922,469.1958452086021 Q530.3062987043046,469.06167327367416 529.44317004672,468.83971383437637 L529.4422979381982,468.8394895657035 Q528.5782971720917,468.6173058577329 527.7408953770827,468.30970033496726 L527.7396697660549,468.3092501272854 Q526.9010423600181,468.0011943968379 526.0973571882244,467.61095805325056 L526.0958647544115,467.61023338899815 Q525.290687148805,467.2192723811584 524.5283717974523,466.75019158714366 L524.5267136441255,466.7491712641529 Q523.762740139446,466.2790701471474 523.0490454703431,465.7356637657382 L523.047328218174,465.73435625171635 Q522.3319162969021,465.1896423562853 521.6736290859276,464.577118566673 L521.6719557669235,464.57556157501256 Q521.0119952369447,463.96148079373984 520.4153802832442,463.28568962475407 L520.4138418789341,463.2839470602398 Q519.8156885209237,462.60641332673976 519.286434531964,461.8737949984814 L519.2851028787028,461.87195166124366 Q518.7545172364819,461.1374899957475 518.2976865354323,460.355019055461 L518.2966091398328,460.3531736655916 Q517.8387010431837,459.5688573354357 517.4586832984376,458.74398253014465 L517.4578803973953,458.7422397356304 Q517.077059751607,457.91562213582506 516.777530078468,457.0562019850979 L516.7769940676758,457.05466404573156 Q516.4769283837447,456.193705955638 516.260810296014,455.3079400612132 L516.2605074582398,455.3066988723115 Q516.0440865327348,454.41969178898495 515.9135203157599,453.5160480285059 L515.9133946174763,453.5151780755252 Q515.7827027022179,452.6106643620655 515.7390198346895,451.6978022467189 L515.7389984317932,451.6973549799907 Q515.6952941613686,450.7840455979159 515.7389984317932,449.87073621584113 L515.7390198346895,449.87028894911293 Q515.7827027022179,448.9574268337663 515.9133946174763,448.0529131203066 L515.9135203157599,448.0520431673259 Q516.0440865327348,447.14839940684686 516.2605074582398,446.26139232352034 L516.260810296014,446.26015113461864 Q516.4769283837447,445.3743852401938 516.7769940676758,444.51342715010026 L516.777530078468,444.5118892107339 Q517.077059751607,443.65246906000675 517.4578803973953,442.8258514602014 L517.4586832984376,442.82410866568716 Q517.8387010431837,441.9992338603961 518.2966091398328,441.2149175302402 L518.2976865354323,441.2130721403708 Q518.7545172364819,440.4306012000843 519.2851028787028,439.69613953458816 L519.2864345319641,439.6942961973504 Q519.8156885209237,438.96167786909206 520.4138418789341,438.28414413559204 L520.4153802832442,438.2824015710778 Q521.0119952369447,437.60661040209203 521.6719557669234,436.99252962081925 L521.6736290859275,436.9909726291589 Q522.331916296902,436.37844883954654 523.047328218174,435.83373494411546 L523.0490454703431,435.8324274300936 Q523.762740139446,435.28902104868445 524.5267136441255,434.8189199316789 L524.5283717974523,434.8178996086882 Q525.290687148805,434.3488188146734 526.0958647544115,433.95785780683366 L526.0973571882244,433.95713314258126 Q526.9010423600181,433.5668967989939 527.7396697660549,433.2588410685464 L527.7408953770828,433.25839086086455 Q528.5782971720917,432.9507853380989 529.4422979381981,432.7286016301283 L529.4431700467197,432.7283773614555 Q530.3062987043045,432.50641792215765 531.1873520307922,432.3722459872297 L531.1878062071858,432.3721768226017 Q532.06840535728,432.23807405230167 532.9580262189821,432.1932060394954 L532.9580262189821,432.1932060394954 Q533.8476470806843,432.14833802668915 534.7372679423864,432.1932060394954 L534.7372679423864,432.1932060394954 Q535.6268888040886,432.23807405230167 536.5074879541828,432.3721768226017 L536.5079421305763,432.3722459872297 Q537.388995457064,432.50641792215765 538.2521241146486,432.72837736145544 L538.2529962231704,432.7286016301283 Q539.1169969892769,432.9507853380989 539.9543987842859,433.25839086086455 L539.9556243953136,433.2588410685464 Q540.7942518013505,433.5668967989939 541.5979369731442,433.95713314258126 L541.599429406957,433.95785780683366 Q542.4046070125636,434.3488188146734 543.1669223639162,434.81789960868815 L543.1685805172431,434.8189199316789 Q543.9325540219226,435.2890210486844 544.6462486910254,435.8324274300936 L544.6479659431945,435.83373494411546 Q545.3633778644664,436.37844883954654 546.021665075441,436.9909726291588 L546.0233383944451,436.99252962081925 Q546.6832989244239,437.606610402092 547.2799138781244,438.28240157107774 L547.2814522824344,438.284144135592 Q547.8796056404449,438.96167786909206 548.4088596294046,439.6942961973504 L548.4101912826658,439.69613953458816 Q548.9407769248867,440.4306012000843 549.3976076259363,441.2130721403708 L549.3986850215358,441.2149175302402 Q549.8565931181848,441.9992338603961 550.236610862931,442.82410866568716 L550.2374137639732,442.8258514602014 Q550.6182344097616,443.65246906000675 550.9177640829006,444.5118892107339 L550.9183000936928,444.51342715010026 Q551.2183657776238,445.3743852401938 551.4344838653545,446.26015113461864 L551.4347867031288,446.26139232352034 Q551.6512076286338,447.14839940684686 551.7817738456087,448.0520431673259 L551.7818995438922,448.0529131203066 Q551.9125914591507,448.95742683376636 551.956274326679,449.87028894911305 L551.9562957295753,449.87073621584113 Q552,450.7840455979159 551.9562957295753,451.6973549799907 Z" fill-rule="evenodd" fill="#ffffff" stroke="#0b7b6a" stroke-width="6" stroke-linejoin="round" />
  <text x="483.94744134553434" y="403.2779411791662" text-anchor="middle" font-family="ui-serif, Georgia, serif" font-size="26" font-weight="600" text-decoration="underline" letter-spacing="1" dominant-baseline="hanging" fill="#4A6741">EB</text>
</svg>